<svg viewBox="0 0 138 24" xmlns="http://www.w3.org/2000/svg">
  <title>AbbVie Logo</title>
  <path d="M137.37 23.2343C137.37 21.7834 136.524 21.2595 135.134 21.2595H124.574C119.617 21.2595 117.864 18.1965 117.642 16.0806H132.292C136.564 16.0806 137.834 12.9975 137.834 11.0227C137.834 8.90679 136.463 5.96473 132.292 5.96473H124.373C117.159 5.96473 114.801 10.8615 114.801 14.8514C114.801 19.2242 117.501 23.738 124.353 23.738H137.37V23.2343ZM124.595 8.44331H131.93C134.468 8.44331 135.073 10.0151 135.073 11.0428C135.073 11.9496 134.509 13.6423 131.93 13.6423H117.642C117.824 11.8489 119.295 8.44331 124.595 8.44331ZM94.7103 22.6096C93.9648 23.6373 93.4408 24 92.7759 24C91.8488 24 91.5062 23.4962 90.8413 22.6096C89.2493 20.4332 78.6499 5.96473 78.6499 5.96473H80.2821C82.0555 5.96473 82.5591 6.58942 83.2847 7.61714C83.6069 8.06044 92.8161 21.0579 92.8161 21.0579C92.8161 21.0579 102.025 8.08059 102.388 7.55668C103.073 6.58942 103.597 5.96473 105.37 5.96473H106.801C106.801 5.96473 96.0202 20.8363 94.7103 22.6096ZM25.2292 23.738C24.1209 23.738 23.4156 23.1939 23.2141 22.005L22.8514 20.0705C22.2469 21.1788 20.0302 23.738 15.2141 23.738H9.67254C2.13602 23.738 0 18.6196 0 14.8514C0 10.5995 2.5592 5.96473 9.67254 5.96473H15.2141C20.6146 5.96473 23.597 9.10831 24.3224 12.937C24.927 16.1411 26.3375 23.738 26.3375 23.738H25.2292ZM14.5894 8.44331H9.8539C4.53401 8.44331 2.7204 11.8287 2.7204 14.8514C2.7204 17.8741 4.53401 21.2595 9.8539 21.2595H14.5894C20.1511 21.2595 21.7632 17.733 21.7632 14.8514C21.7632 12.272 20.3123 8.44331 14.5894 8.44331ZM110.408 3.92948C111.194 3.92948 111.799 3.44585 111.799 2.51889V1.93451C111.799 1.00756 111.174 0.523931 110.408 0.523931C109.642 0.523931 109.018 0.987405 109.018 1.93451V2.51889C108.998 3.44585 109.622 3.92948 110.408 3.92948ZM109.038 5.96473H109.683C110.952 5.96473 111.758 6.52897 111.758 8.26195V23.738H111.073C109.683 23.738 109.018 22.9924 109.018 21.5013C109.038 21.2796 109.038 5.96473 109.038 5.96473ZM30.5089 8.2821C31.6775 7.17381 33.7734 5.96473 37.0781 5.96473H42.6196C50.156 5.96473 52.2922 11.0831 52.2922 14.8514C52.2922 19.1033 49.7329 23.738 42.6196 23.738H37.0781C31.6775 23.738 27.7884 20.2519 27.7884 14.8514V0H28.6347C29.8438 0 30.5089 0.624684 30.5089 1.75315V8.2821ZM37.6826 21.2595H42.4181C47.7382 21.2595 49.5515 17.8741 49.5515 14.8514C49.5515 11.8287 47.7382 8.44331 42.4181 8.44331H37.6826C32.1208 8.44331 30.5089 11.9698 30.5089 14.8514C30.5089 17.4307 31.9397 21.2595 37.6826 21.2595ZM57.7532 8.2821C58.922 7.17381 61.0176 5.96473 64.3223 5.96473H69.8641C77.4005 5.96473 79.5364 11.0831 79.5364 14.8514C79.5364 19.1033 76.9774 23.738 69.8641 23.738H64.3223C58.922 23.738 55.0329 20.2519 55.0329 14.8514V0H55.8792C57.0883 0 57.7532 0.624684 57.7532 1.75315V8.2821ZM64.9269 21.2595H69.6626C74.9824 21.2595 76.796 17.8741 76.796 14.8514C76.796 11.8287 74.9824 8.44331 69.6626 8.44331H64.9269C59.3653 8.44331 57.7532 11.9698 57.7532 14.8514C57.7532 17.4307 59.204 21.2595 64.9269 21.2595Z" />
</svg>