<svg viewBox="0 0 44 44" xmlns="http://www.w3.org/2000/svg">
  <title>Small AbbVie Logo</title>
  <path fill="#071D49" d="M44 22C44 34.1503 34.1503 44 22 44C9.84974 44 0 34.1503 0 22C0 9.84974 9.84974 0 22 0C34.1503 0 44 9.84974 44 22ZM30.8004 28.241C30.9788 29.294 31.6035 29.7758 32.5852 29.7758H33.5668C33.5668 29.7758 32.3175 23.0474 31.782 20.2096C31.1395 16.8187 28.4979 14.0345 23.7146 14.0345H18.8064C12.506 14.0345 10.2393 18.1394 10.2393 21.9052C10.2393 25.2426 12.1312 29.7758 18.8064 29.7758H23.7146C27.9803 29.7758 29.9436 27.5092 30.4791 26.5276L30.8004 28.241ZM18.967 16.2297H23.1613C28.2302 16.2297 29.5153 19.6207 29.5153 21.9052C29.5153 24.4573 28.0874 27.5806 23.1613 27.5806H18.967C14.2551 27.5806 12.6488 24.5823 12.6488 21.9052C12.6488 19.228 14.2551 16.2297 18.967 16.2297Z"/>
</svg>